<?xml version="1.0" encoding="UTF-8" standalone="no"?>
<!DOCTYPE svg PUBLIC "-//W3C//DTD SVG 1.1//EN" "http://www.w3.org/Graphics/SVG/1.1/DTD/svg11.dtd">
<svg width="100%" height="100%" viewBox="0 0 64 64" version="1.1" xmlns="http://www.w3.org/2000/svg" xmlns:xlink="http://www.w3.org/1999/xlink" xml:space="preserve" xmlns:serif="http://www.serif.com/" style="fill-rule:evenodd;clip-rule:evenodd;stroke-linejoin:round;stroke-miterlimit:2;">
    <style>
        .time-text {
            font: 25px sans-serif;
            text-align: right;
        }
    </style>
    <g id="Mesa-de-trabajo1" serif:id="Mesa de trabajo1" transform="matrix(0.125,0,0,0.125,0,0)">
        <rect x="0" y="0" width="512" height="512" style="fill:none;"/>
        <g id="backwardIcon">
            <g transform="matrix(0.301682,-0.953409,0.953409,0.301682,-33.639,434.074)">
                <path d="M355.677,210.325L313.116,244.106C310.204,246.417 306.249,246.917 302.853,245.404C299.458,243.891 297.186,240.615 296.958,236.904C294.434,195.787 288.533,99.662 286.302,63.32C286.102,60.067 287.504,56.922 290.057,54.896C292.609,52.87 295.991,52.218 299.113,53.151C334,63.575 426.276,91.145 465.746,102.938C469.308,104.002 471.982,106.958 472.686,110.609C473.389,114.259 472.004,117.997 469.092,120.308L428.325,152.665C446.893,183.621 456.937,219.293 456.937,256C456.937,366.9 366.9,456.937 256,456.937C209.979,456.937 165.585,441.149 129.919,412.741C125.631,409.157 123.047,403.936 122.798,398.352C122.55,392.769 124.66,387.338 128.613,383.387C139.797,372.203 155.034,356.966 165.942,346.53C172.858,339.614 183.818,338.865 191.611,344.775C210.215,358.269 232.726,365.668 256,365.668C316.527,365.668 365.668,316.527 365.668,256C365.668,240.079 362.205,224.514 355.677,210.325Z"/>
            </g>
            <g transform="matrix(8,0,0,8,-12.5937,20.6629)">
                <text class="time-text" x="0" y="54" width="20">s</text>
            </g>
        </g>
    </g>
</svg>
