<?xml version="1.0" encoding="utf-8"?>
<!-- Generator: Adobe Illustrator 18.1.1, SVG Export Plug-In . SVG Version: 6.00 Build 0)  -->
<svg version="1.1" id="Layer_1" xmlns="http://www.w3.org/2000/svg" xmlns:xlink="http://www.w3.org/1999/xlink" x="0px" y="0px"
	 viewBox="0 0 595.3 841.9" enable-background="new 0 0 595.3 841.9" xml:space="preserve">
<linearGradient id="SVGID_1_" gradientUnits="userSpaceOnUse" x1="50.5708" y1="417.8927" x2="568.6959" y2="417.8927">
	<stop  offset="0" style="stop-color:#4C6486"/>
	<stop  offset="1.980000e-02" style="stop-color:#4C6486"/>
	<stop  offset="1" style="stop-color:#5A77A0"/>
</linearGradient>
<path fill="url(#SVGID_1_)" d="M50.6,616.7c1.7-2.4,3.4-4.7,5-7.1c25.4-37.7,50.7-75.5,76-113.2c20.6-30.6,41.1-61.2,61.7-91.8
	c24.6-36.7,49.3-73.3,73.9-110c17-25.2,33.9-50.5,50.9-75.7c0.1,0,0.2,0,0.3,0c0.2,0.3,0.3,0.7,0.6,1c22,25.5,44,50.9,66,76.3
	c22.2,25.7,44.4,51.3,66.6,77c16.3,18.8,32.5,37.6,48.8,56.4c22.6,26.1,45.2,52.3,67.8,78.4c0.2,0.2,0.3,0.4,0.6,0.8
	c-0.4,0.1-0.7,0.1-0.9,0.1c-9.7,0.2-19.3,0.4-29,0.7c-12.4,0.3-24.8,0.6-37.1,0.8c-0.4,0-0.8,0.1-1.2,0.1c-1.1,0.1-1.9-0.3-2.7-1.2
	c-14.6-17.4-29.3-34.8-43.9-52.2c-12.2-14.4-24.3-28.8-36.4-43.3c-1.5-1.8-3.1-3.6-4.8-5.6c-17.1,21.8-34.2,43.5-51.3,65.3
	c-27.3-35-54.5-69.9-81.9-105c-1.2,1.6-2.2,3.1-3.3,4.6c-32.2,46.2-64.3,92.4-96.5,138.6c-24.1,34.6-48.3,69.2-72.4,103.9
	c-0.6,0.9-1.3,1.2-2.4,1.2c-18.1,0-36.2,0-54.2,0C50.6,616.8,50.6,616.8,50.6,616.7z"/>
<polygon fill="#FF4800" points="267.6,458.1 431.4,552.6 267.6,647.1 "/>
</svg>
