<svg id="Ebene_1" data-name="Ebene 1" xmlns="http://www.w3.org/2000/svg" viewBox="0 0 893 480"><defs><style>.cls-1{fill:#e9eaed;}.cls-2{fill:#d9c863;}.cls-3{fill:#c4aa0a;}</style></defs><title>Thumbnail geplante Aufzeichnung_end</title><rect class="cls-1" width="893" height="480"/><path class="cls-2" d="M447.25,37.5c-112.11,0-203,90.89-203,203s90.89,203,203,203,203-90.89,203-203S559.36,37.5,447.25,37.5Zm0,356.5a153.5,153.5,0,1,1,153.5-153.5A153.5,153.5,0,0,1,447.25,394Z"/><rect class="cls-2" x="433.25" y="105" width="28" height="149" rx="12.8" ry="12.8"/><rect class="cls-2" x="403.4" y="215.23" width="28" height="104.48" rx="11.01" ry="11.01" transform="translate(342.78 -222.62) rotate(48.69)"/><rect class="cls-3" x="486.75" y="305" width="162" height="138" rx="12" ry="12"/><rect class="cls-1" x="497.25" y="340" width="141" height="92"/><rect class="cls-3" x="516.98" y="283.95" width="23" height="41" rx="10" ry="10"/><rect class="cls-1" x="523.36" y="291.05" width="10.24" height="26.81" rx="5.12" ry="5.12"/><rect class="cls-3" x="595.98" y="284.95" width="23" height="41" rx="10" ry="10"/><rect class="cls-1" x="602.36" y="292.05" width="10.24" height="26.81" rx="5.12" ry="5.12"/></svg>